Release Name : Hack Job 2011 DVDRip XviD-ZOMBiES
Rating : N/A/10
Genre : Comedy, Horror, Thriller
Stars : James Balsamo, Michael Shershenovich, Dave Brockie, Lynn Lowry
Director : James Balsamo
Writers : James Balsamo
Release Date : N/A
Movie Runtime : 1 hr 36 mins
Rated Under : N/A
Movie Plot : An anthology film with three stories, all taking place in the same small town.
 
http://www.imdb.com/title/tt1907681/


Format                           : AVI
Format/Info                      : Audio Video Interleave
File size                        : 771 MiB
Duration                         : 1h 36mn
Overall bit rate                 : 1 123 Kbps
Writing library                  : VirtualDub build 32842/release

Video
ID                               : 0
Format                           : MPEG-4 Visual
Format profile                   : Advanced Simple@L5
Format settings, BVOP            : Yes
Format settings, QPel            : No
Format settings, GMC             : No warppoints
Format settings, Matrix          : Default (H.263)
Muxing mode                      : Packed bitstream
Codec ID                         : XVID
Codec ID/Hint                    : XviD
Duration                         : 1h 36mn
Bit rate                         : 996 Kbps
Width                            : 720 pixels
Height                           : 400 pixels
Display aspect ratio             : 16:9
Frame rate                       : 23.976 fps
Color space                      : YUV
Chroma subsampling               : 4:2:0
Bit depth                        : 8 bits
Scan type                        : Progressive
Bits/(Pixel*Frame)               : 0.144
Stream size                      : 684 MiB (89%)
Writing library                  : XviD 1.2.1 (UTC 2008-12-04)

Audio
ID                               : 1
Format                           : MPEG Audio
Format version                   : Version 1
Format profile                   : Layer 3
Mode                             : Joint stereo
Mode extension                   : MS Stereo
Codec ID                         : 55
Codec ID/Hint                    : MP3
Duration                         : 1h 36mn
Bit rate mode                    : Variable
Bit rate                         : 117 Kbps
Channel(s)                       : 2 channels
Sampling rate                    : 48.0 KHz
Stream size                      : 80.4 MiB (10%)
Alignment                        : Split accross interleaves
Interleave, duration             : 42 ms (1.00 video frame)
Interleave, preload duration     : 546 ms

Source : SiC 